<svg width="82" height="81" viewBox="0 0 82 81" fill="none" xmlns="http://www.w3.org/2000/svg">
<g id="Subtract">
<path d="M40.5443 44.8393C49.707 44.8393 57.1348 37.5535 57.1348 28.567C57.1348 19.5805 49.707 12.2946 40.5443 12.2946C31.3816 12.2946 23.9538 19.5805 23.9538 28.567C23.9538 37.5535 31.3816 44.8393 40.5443 44.8393Z" fill="#008182"/>
<path fill-rule="evenodd" clip-rule="evenodd" d="M15.9554 0C7.16806 0 0.0446777 7.12338 0.0446777 15.9107V65.0893C0.0446777 69.3834 1.74501 73.2791 4.50933 76.1409C10.1647 62.0467 24.1671 52.0714 40.5447 52.0714C56.9222 52.0714 70.9246 62.0467 76.58 76.1409C79.3443 73.2791 81.0447 69.3834 81.0447 65.0893V15.9107C81.0447 7.12338 73.9213 0 65.134 0H15.9554ZM40.5443 48.4554C51.7432 48.4554 60.8215 39.5508 60.8215 28.567C60.8215 17.5831 51.7432 8.67857 40.5443 8.67857C29.3454 8.67857 20.2671 17.5831 20.2671 28.567C20.2671 39.5508 29.3454 48.4554 40.5443 48.4554Z" fill="#008182"/>
<path d="M73.5728 78.5803C68.762 65.2418 55.7911 55.6875 40.5447 55.6875C25.2982 55.6875 12.3273 65.2418 7.5166 78.5803C9.96274 80.1143 12.8556 81 15.9554 81H65.134C68.2338 81 71.1266 80.1143 73.5728 78.5803Z" fill="#008182"/>
</g>
</svg>
